 <svg xmlns="http://www.w3.org/2000/svg" xmlns:xlink="http://www.w3.org/1999/xlink" version="1.1" x="0px" y="0px" viewBox="0 0 100 125" style="enable-background:new 0 0 100 100;" xml:space="preserve"><style type="text/css">
                        .st0{fill:none;stroke:#43484D;stroke-width:4;stroke-linecap:round;stroke-miterlimit:10;}
                    </style><g><path d="M53.7,35.2c0,0.1,0,0.3,0.1,0.4l14,14h-37c-0.3,0-0.5,0.2-0.5,0.5s0.2,0.5,0.5,0.5h37l-14,14c-0.1,0.1-0.1,0.2-0.1,0.4   s0,0.3,0.1,0.4c0.2,0.2,0.5,0.2,0.7,0l14.8-14.8c0.2-0.2,0.2-0.5,0-0.7L54.6,34.8c-0.2-0.2-0.5-0.2-0.7,0   C53.8,34.9,53.7,35,53.7,35.2z"/></g></svg>